<?xml version="1.0" encoding="UTF-8"?>
<svg fill="currentColor" preserveAspectRatio="xMidYMid meet" width="30" height="30" viewBox="0 0 1024 1024" class="ve-svgicon" style="vertical-align: middle;" data-spm-anchor-id="a1z5nnk.22364494.0.i10.4eb363dbyEq2nN"><path d="M128 64h288a64 64 0 0 1 64 64v288a64 64 0 0 1-64 64H128a64 64 0 0 1-64-64V128a64 64 0 0 1 64-64z m32 64a32 32 0 0 0-32 32v224a32 32 0 0 0 32 32h224a32 32 0 0 0 32-32V160a32 32 0 0 0-32-32H160z m448-64h288a64 64 0 0 1 64 64v288a64 64 0 0 1-64 64h-288a64 64 0 0 1-64-64V128a64 64 0 0 1 64-64z m32 64a32 32 0 0 0-32 32v224a32 32 0 0 0 32 32h224a32 32 0 0 0 32-32V160a32 32 0 0 0-32-32h-224z m-32 416h288a64 64 0 0 1 64 64v288a64 64 0 0 1-64 64h-288a64 64 0 0 1-64-64v-288a64 64 0 0 1 64-64z m32 64a32 32 0 0 0-32 32v224a32 32 0 0 0 32 32h224a32 32 0 0 0 32-32v-224a32 32 0 0 0-32-32h-224zM128 544h288a64 64 0 0 1 64 64v288a64 64 0 0 1-64 64H128a64 64 0 0 1-64-64v-288a64 64 0 0 1 64-64z m32 64a32 32 0 0 0-32 32v224a32 32 0 0 0 32 32h224a32 32 0 0 0 32-32v-224a32 32 0 0 0-32-32H160z"></path></svg>